<svg width="152" height="30" viewBox="0 0 152 30" fill="none" xmlns="http://www.w3.org/2000/svg">
<path d="M20.7422 23.2891C20.6953 23.5078 20.5938 23.6875 20.4375 23.8281C20.2969 23.9531 20.125 24.0547 19.9219 24.1328C19.7188 24.2109 19.5078 24.2656 19.2891 24.2969C19.0859 24.3125 18.8984 24.3203 18.7266 24.3203C18.6484 24.3203 18.5703 24.3203 18.4922 24.3203C18.4297 24.3047 18.3594 24.2969 18.2812 24.2969C18.2031 24.2969 18.1641 24.3359 18.1641 24.4141C18.1641 24.4922 18.125 24.5469 18.0469 24.5781C17.9688 24.5469 17.8906 24.5234 17.8125 24.5078C17.7344 24.4922 17.6562 24.4844 17.5781 24.4844C17.4688 24.4844 17.3594 24.4922 17.25 24.5078C17.1562 24.5234 17.0625 24.5312 16.9688 24.5312C16.8438 24.5312 16.75 24.5156 16.6875 24.4844C16.6406 24.4531 16.5938 24.4219 16.5469 24.3906C16.5156 24.3438 16.4766 24.2969 16.4297 24.25C16.3984 24.2031 16.3438 24.1641 16.2656 24.1328C16.1562 24.0859 16.0625 24.0781 15.9844 24.1094C15.9219 24.1406 15.8203 24.0938 15.6797 23.9688C15.4922 23.8125 15.3281 23.625 15.1875 23.4062C15.0625 23.1719 14.9375 22.9297 14.8125 22.6797C14.6875 22.4297 14.5547 22.1797 14.4141 21.9297C14.2734 21.6797 14.1094 21.4609 13.9219 21.2734H13.7344C13.4531 21.2734 13.2578 21.3906 13.1484 21.625C13.0703 21.5781 12.9922 21.5234 12.9141 21.4609C12.8359 21.3828 12.75 21.3203 12.6562 21.2734C12.2969 21.3828 11.9219 21.4766 11.5312 21.5547C11.1406 21.6328 10.75 21.6719 10.3594 21.6719H10.0312C9.9375 21.6719 9.83594 21.6562 9.72656 21.625C9.57031 21.6875 9.42969 21.7656 9.30469 21.8594C9.17969 21.9375 9.03906 21.9766 8.88281 21.9766C8.78906 21.9766 8.67969 21.9453 8.55469 21.8828C8.46094 21.8828 8.41406 21.9219 8.41406 22C8.42969 22.0781 8.38281 22.1172 8.27344 22.1172H8.0625C7.84375 22.1172 7.625 22.125 7.40625 22.1406C7.20312 22.1562 6.99219 22.1641 6.77344 22.1641C6.47656 22.1641 6.17188 22.125 5.85938 22.0469C5.78125 22.0938 5.69531 22.1172 5.60156 22.1172C5.53906 22.1484 5.49219 22.2031 5.46094 22.2812C5.42969 22.3438 5.39844 22.4062 5.36719 22.4688C5.33594 22.5156 5.28906 22.5625 5.22656 22.6094C5.17969 22.6406 5.10938 22.6484 5.01562 22.6328C4.98438 22.8203 4.90625 22.9688 4.78125 23.0781C4.65625 23.1875 4.59375 23.3516 4.59375 23.5703C4.42188 23.6641 4.28125 23.7812 4.17188 23.9219C4.0625 24.0625 3.95312 24.2109 3.84375 24.3672C3.73438 24.5234 3.61719 24.6719 3.49219 24.8125C3.38281 24.9531 3.24219 25.0625 3.07031 25.1406C2.99219 25.2344 2.96875 25.3828 3 25.5859C2.82812 25.7266 2.61719 25.8516 2.36719 25.9609C2.11719 26.0703 1.88281 26.125 1.66406 26.125C1.21094 26.125 0.898438 25.8828 0.726562 25.3984C0.726562 25.2422 0.742188 25.0781 0.773438 24.9062C0.789062 24.7188 0.820312 24.5469 0.867188 24.3906C0.914062 24.2188 0.984375 24.0703 1.07812 23.9453C1.17188 23.8047 1.30469 23.7031 1.47656 23.6406C1.47656 23.5 1.42969 23.4062 1.33594 23.3594C1.24219 23.2969 1.20312 23.1953 1.21875 23.0547C1.64062 22.8516 2.00781 22.5859 2.32031 22.2578C2.63281 21.9297 2.91406 21.5859 3.16406 21.2266C3.42969 20.8516 3.69531 20.4766 3.96094 20.1016C4.22656 19.7266 4.52344 19.3906 4.85156 19.0938V18.6016C5.32031 18.1016 5.625 17.5391 5.76562 16.9141C5.9375 16.8828 6.04688 16.8047 6.09375 16.6797C6.15625 16.5547 6.1875 16.4062 6.1875 16.2344C6.26562 16.2344 6.3125 16.2031 6.32812 16.1406C6.35938 16.0625 6.42969 16.0391 6.53906 16.0703C6.67969 15.6953 6.83594 15.3516 7.00781 15.0391C7.17969 14.7266 7.35156 14.4141 7.52344 14.1016C7.69531 13.7734 7.84375 13.4375 7.96875 13.0938C8.10938 12.75 8.21094 12.3672 8.27344 11.9453C8.49219 11.9297 8.60938 11.8281 8.625 11.6406C8.65625 11.4375 8.6875 11.2578 8.71875 11.1016C8.95312 10.8828 9.125 10.625 9.23438 10.3281C9.35938 10.0312 9.46875 9.72656 9.5625 9.41406C9.65625 9.08594 9.75781 8.76562 9.86719 8.45312C9.99219 8.125 10.1641 7.83594 10.3828 7.58594V7.51562C10.3828 7.4375 10.3516 7.39062 10.2891 7.375C10.2266 7.34375 10.1953 7.28906 10.1953 7.21094C10.2109 7.19531 10.2188 7.17969 10.2188 7.16406C10.4062 7.08594 10.5469 6.96094 10.6406 6.78906C10.7344 6.60156 10.875 6.46875 11.0625 6.39062C11.3906 6.65625 11.6797 6.82031 11.9297 6.88281C12.1797 6.92969 12.5078 6.96875 12.9141 7C13.1172 7.21875 13.2266 7.48438 13.2422 7.79688C13.2734 8.09375 13.3281 8.39062 13.4062 8.6875C13.5312 9.1875 13.6641 9.67969 13.8047 10.1641C13.9609 10.6328 14.0781 11.1172 14.1562 11.6172C14.2031 11.9141 14.2891 12.1953 14.4141 12.4609C14.5391 12.7266 14.625 13 14.6719 13.2812C14.7031 13.5 14.7031 13.75 14.6719 14.0312C14.6406 14.2969 14.6719 14.5312 14.7656 14.7344L14.9297 15.1094C15.0078 15.2812 15.0703 15.4609 15.1172 15.6484C15.1797 15.8359 15.2344 16.0234 15.2812 16.2109C15.4062 16.6797 15.5156 17.1875 15.6094 17.7344C15.7188 18.2656 15.8828 18.75 16.1016 19.1875C16.1797 19.3438 16.2969 19.4531 16.4531 19.5156C16.625 19.5781 16.8125 19.625 17.0156 19.6562C17.2188 19.6719 17.4141 19.6797 17.6016 19.6797C17.8047 19.6641 17.9766 19.6562 18.1172 19.6562H18.3516C18.4453 19.6562 18.5391 19.6719 18.6328 19.7031C18.6953 19.8281 18.7266 19.9375 18.7266 20.0312C18.7266 20.2188 18.6641 20.3672 18.5391 20.4766C18.4141 20.5859 18.3516 20.7109 18.3516 20.8516C18.3516 20.9297 18.3828 21.0156 18.4453 21.1094C18.3828 21.0938 18.2891 21.0859 18.1641 21.0859C17.8047 21.0859 17.4531 21.1484 17.1094 21.2734C17.2344 21.5391 17.3984 21.7656 17.6016 21.9531C17.8203 22.125 18.0469 22.2891 18.2812 22.4453C18.4375 22.3203 18.6016 22.2578 18.7734 22.2578C18.9609 22.2578 19.1328 22.3047 19.2891 22.3984C19.4609 22.4766 19.6406 22.5156 19.8281 22.5156C19.9688 22.5156 20.0703 22.4922 20.1328 22.4453C20.2578 22.5859 20.3594 22.7344 20.4375 22.8906C20.5156 23.0312 20.6172 23.1641 20.7422 23.2891ZM13.4062 19.5391C13.375 19.2734 13.3203 19.0859 13.2422 18.9766C13.1797 18.8516 13.125 18.7031 13.0781 18.5312C13.0156 18.3125 12.9688 18.0781 12.9375 17.8281C12.9219 17.5781 12.8906 17.3359 12.8438 17.1016C12.7344 16.5703 12.6094 16.0391 12.4688 15.5078C12.3438 14.9766 12.1797 14.4609 11.9766 13.9609C12.0391 13.8672 12.0703 13.7812 12.0703 13.7031V13.6328C11.9297 13.4766 11.8281 13.2891 11.7656 13.0703C11.7031 12.8359 11.6406 12.6094 11.5781 12.3906C11.5312 12.1562 11.4609 11.9453 11.3672 11.7578C11.2891 11.5547 11.1562 11.3906 10.9688 11.2656C10.9219 11.3594 10.8984 11.4688 10.8984 11.5938C10.8984 11.7031 10.9062 11.8047 10.9219 11.8984C10.9531 11.9922 10.9688 12.0938 10.9688 12.2031C10.8125 12.2812 10.6953 12.4062 10.6172 12.5781C10.5547 12.7344 10.4453 12.8594 10.2891 12.9531C10.1641 13.4531 9.98438 13.9297 9.75 14.3828C9.51562 14.8203 9.26562 15.2578 9 15.6953C8.75 16.1328 8.50781 16.5781 8.27344 17.0312C8.03906 17.4688 7.85156 17.9297 7.71094 18.4141C7.50781 18.5547 7.36719 18.7344 7.28906 18.9531C7.22656 19.1719 7.19531 19.3906 7.19531 19.6094C7.33594 19.6875 7.49219 19.7344 7.66406 19.75C7.85156 19.75 8.03125 19.75 8.20312 19.75C8.375 19.75 8.53906 19.7656 8.69531 19.7969C8.85156 19.8281 8.99219 19.9062 9.11719 20.0312C9.32031 19.9688 9.53906 19.9297 9.77344 19.9141C10.0234 19.8828 10.2266 19.8125 10.3828 19.7031C10.6953 19.8125 11.0312 19.8672 11.3906 19.8672C11.5781 19.8672 11.7578 19.8516 11.9297 19.8203C12.1172 19.7891 12.2969 19.75 12.4688 19.7031C12.6094 19.7344 12.7188 19.7891 12.7969 19.8672C12.875 19.9297 12.9922 19.9531 13.1484 19.9375C13.2266 19.875 13.2734 19.8125 13.2891 19.75C13.3047 19.6719 13.3438 19.6016 13.4062 19.5391ZM50.0625 20.9219C50.0312 21.1562 49.9453 21.3359 49.8047 21.4609C49.6797 21.5859 49.5312 21.7031 49.3594 21.8125C49.2812 21.7969 49.2031 21.7891 49.125 21.7891C49.0625 21.7734 48.9922 21.7656 48.9141 21.7656C48.4297 21.75 47.9688 21.8125 47.5312 21.9531C47.1094 22.0938 46.6719 22.1953 46.2188 22.2578C46.0625 22.2891 45.9141 22.3047 45.7734 22.3047C45.6484 22.2891 45.5156 22.2969 45.375 22.3281C44.875 22.4062 44.3438 22.4688 43.7812 22.5156C43.2188 22.5625 42.6562 22.625 42.0938 22.7031C41.5312 22.7656 40.9766 22.8516 40.4297 22.9609C39.8984 23.0547 39.3984 23.1953 38.9297 23.3828C38.8828 23.3516 38.8359 23.3203 38.7891 23.2891C38.7422 23.2422 38.6875 23.2188 38.625 23.2188C38.4688 23.2188 38.3203 23.2422 38.1797 23.2891C38.0391 23.3359 37.8984 23.3516 37.7578 23.3359C37.6016 23.4297 37.4297 23.5 37.2422 23.5469C37.0703 23.5781 36.8906 23.6094 36.7031 23.6406C36.5312 23.6562 36.3594 23.6875 36.1875 23.7344C36.0156 23.7812 35.8516 23.8672 35.6953 23.9922C35.5703 23.9297 35.4141 23.8984 35.2266 23.8984C35.0547 23.8828 34.9375 23.8203 34.875 23.7109C34.5156 23.8828 34.1328 23.9922 33.7266 24.0391C33.3359 24.0859 32.9375 24.1016 32.5312 24.0859C32.2656 24.0703 31.9609 24.0312 31.6172 23.9688C31.2734 23.9062 30.9297 23.8203 30.5859 23.7109C30.2422 23.5859 29.9219 23.4453 29.625 23.2891C29.3281 23.1172 29.1016 22.9141 28.9453 22.6797C28.8359 22.5234 28.7578 22.3516 28.7109 22.1641C28.6641 21.9766 28.5547 21.8359 28.3828 21.7422C28.4297 21.3828 28.4844 21.0312 28.5469 20.6875C28.6094 20.3438 28.6719 19.9922 28.7344 19.6328C29.0469 19.3672 29.3438 19.0859 29.625 18.7891C29.9062 18.4922 30.1719 18.1797 30.4219 17.8516C30.7188 17.7109 30.9922 17.5391 31.2422 17.3359C31.5078 17.1328 31.7656 16.9297 32.0156 16.7266C32.2812 16.5078 32.5391 16.2969 32.7891 16.0938C33.0547 15.8906 33.3359 15.7109 33.6328 15.5547C33.6797 15.4453 33.7422 15.3594 33.8203 15.2969C33.9141 15.2188 34.0078 15.1484 34.1016 15.0859C34.1953 15.0078 34.2812 14.9297 34.3594 14.8516C34.4375 14.7578 34.4922 14.6484 34.5234 14.5234C35.0703 14.1953 35.5469 13.7812 35.9531 13.2812C36.3594 12.7812 36.625 12.2188 36.75 11.5938C36.4844 11.375 36.1797 11.2344 35.8359 11.1719C35.5078 11.0938 35.1641 11.0391 34.8047 11.0078C34.4922 10.9922 34.1641 10.9922 33.8203 11.0078C33.4922 11.0234 33.1562 11.0156 32.8125 10.9844C32.4688 11.0938 32.1094 11.1641 31.7344 11.1953C31.375 11.2266 31.0156 11.2578 30.6562 11.2891C30.2969 11.3047 29.9375 11.3516 29.5781 11.4297C29.2344 11.4922 28.8984 11.6172 28.5703 11.8047C28.5078 11.8047 28.4453 11.7969 28.3828 11.7812C28.3359 11.7656 28.2812 11.7578 28.2188 11.7578C27.7188 11.7422 27.25 11.8438 26.8125 12.0625C26.375 12.2656 25.9453 12.4688 25.5234 12.6719C25.4922 12.7344 25.4766 12.7812 25.4766 12.8125C25.4766 12.9062 25.4922 13 25.5234 13.0938C25.5703 13.1719 25.5938 13.2578 25.5938 13.3516C25.5781 13.3672 25.5703 13.3828 25.5703 13.3984C25.5703 13.4141 25.5625 13.4297 25.5469 13.4453C25.5312 13.5234 25.5078 13.5938 25.4766 13.6562C25.4609 13.7188 25.4375 13.7891 25.4062 13.8672C25.2344 14.3672 25.1406 14.8594 25.125 15.3438C25.1094 15.75 25.1094 16.1484 25.125 16.5391C25.1406 16.9297 25.1406 17.3281 25.125 17.7344C25.0938 18.2344 25.0156 18.7031 24.8906 19.1406C24.9688 19.5156 25.0391 19.9141 25.1016 20.3359C25.1641 20.7422 25.2422 21.1484 25.3359 21.5547C25.4297 21.9609 25.5391 22.3594 25.6641 22.75C25.8047 23.125 25.9844 23.4844 26.2031 23.8281C26.1875 23.8594 26.1953 23.8828 26.2266 23.8984C26.2578 23.9141 26.2891 23.9219 26.3203 23.9219H26.5078C26.5859 23.9219 26.6172 23.9531 26.6016 24.0156C26.6328 24.0625 26.6562 24.1094 26.6719 24.1562C26.6875 24.1875 26.7188 24.2188 26.7656 24.25C26.7969 24.2969 26.7969 24.3594 26.7656 24.4375C26.75 24.75 26.6719 25.0391 26.5312 25.3047C26.3906 25.5703 26.3047 25.8594 26.2734 26.1719C26.0859 26.2188 25.9141 26.2422 25.7578 26.2422C25.4922 26.2266 25.2578 26.1484 25.0547 26.0078C24.8516 25.8828 24.6641 25.7266 24.4922 25.5391C24.3203 25.3516 24.1562 25.1641 24 24.9766C23.8438 24.7734 23.6719 24.6016 23.4844 24.4609C23.375 24.0234 23.2656 23.5391 23.1562 23.0078C23.0625 22.4766 22.8984 22.0234 22.6641 21.6484C22.7266 21.5078 22.7578 21.3359 22.7578 21.1328C22.7734 20.8203 22.7422 20.5156 22.6641 20.2188C22.6016 19.9062 22.5859 19.5938 22.6172 19.2812C22.6172 19.1094 22.6328 18.9375 22.6641 18.7656C22.7109 18.5938 22.7422 18.4219 22.7578 18.25C22.7734 17.9844 22.7422 17.7266 22.6641 17.4766C22.6016 17.2266 22.5781 16.9688 22.5938 16.7031C22.6094 16.5781 22.6328 16.4609 22.6641 16.3516C22.7109 16.2266 22.7734 16.1172 22.8516 16.0234C22.7734 15.8359 22.75 15.6562 22.7812 15.4844C22.7969 15.2188 22.8281 14.9688 22.875 14.7344C22.9219 14.5 22.9531 14.2656 22.9688 14.0312C22.9688 13.9062 22.9609 13.7891 22.9453 13.6797C22.9297 13.5547 22.9062 13.4375 22.875 13.3281L22.6641 13.2578C22.5703 13.2578 22.4766 13.2812 22.3828 13.3281C22.3047 13.375 22.2344 13.4297 22.1719 13.4922C22.1094 13.5547 22.0547 13.6094 22.0078 13.6562C21.9609 13.6875 21.9141 13.7031 21.8672 13.7031C21.8359 13.7031 21.7969 13.7031 21.75 13.7031C21.7188 13.6875 21.6875 13.6797 21.6562 13.6797C21.625 13.6797 21.5625 13.7109 21.4688 13.7734C21.3906 13.8359 21.2891 13.9062 21.1641 13.9844C21.0547 14.0469 20.9453 14.1172 20.8359 14.1953C20.7266 14.2578 20.6406 14.2969 20.5781 14.3125C20.4062 14.2812 20.2656 14.2266 20.1562 14.1484C20.0625 14.0547 19.9688 13.9688 19.875 13.8906C19.7969 13.7969 19.7109 13.7188 19.6172 13.6562C19.5234 13.5781 19.4062 13.5469 19.2656 13.5625C19.2188 13.4688 19.1953 13.3672 19.1953 13.2578C19.1797 13.1484 19.1797 13.0391 19.1953 12.9297V12.5547C19.3047 12.3516 19.4531 12.1875 19.6406 12.0625C19.8125 11.9219 20 11.8047 20.2031 11.7109L20.8125 11.4297C21.0156 11.3359 21.2031 11.2188 21.375 11.0781H21.5859C21.8672 11.0938 22.1094 11.0391 22.3125 10.9141C22.5312 10.7891 22.7344 10.6484 22.9219 10.4922C23.1094 10.3203 23.2969 10.1484 23.4844 9.97656C23.6875 9.80469 23.9062 9.67188 24.1406 9.57812C24.3125 9.65625 24.4922 9.72656 24.6797 9.78906C24.8672 9.83594 25.0625 9.86719 25.2656 9.88281C25.4688 9.88281 25.6797 9.85156 25.8984 9.78906C26.1172 9.72656 26.2891 9.60938 26.4141 9.4375C26.4922 9.46875 26.5547 9.49219 26.6016 9.50781C26.6641 9.50781 26.7344 9.50781 26.8125 9.50781C27.0469 9.52344 27.2812 9.49219 27.5156 9.41406C27.75 9.32031 27.9766 9.21094 28.1953 9.08594C28.5078 9.10156 28.8125 9.08594 29.1094 9.03906C29.4219 8.97656 29.7266 8.91406 30.0234 8.85156C30.3359 8.78906 30.6406 8.73438 30.9375 8.6875C31.25 8.625 31.5625 8.60156 31.875 8.61719C32.3906 8.63281 32.8984 8.58594 33.3984 8.47656C33.8984 8.36719 34.4062 8.32812 34.9219 8.35938C35.2812 8.375 35.6328 8.40625 35.9766 8.45312C36.3359 8.48438 36.6953 8.49219 37.0547 8.47656C37.2578 8.57031 37.4375 8.65625 37.5938 8.73438C37.7656 8.79688 37.9766 8.8125 38.2266 8.78125C38.7266 9.20312 39.1797 9.69531 39.5859 10.2578V10.6562C39.5703 11.0156 39.5078 11.3672 39.3984 11.7109C39.2891 12.0547 39.1562 12.3984 39 12.7422C38.8594 13.0703 38.7031 13.3984 38.5312 13.7266C38.3594 14.0391 38.1953 14.3516 38.0391 14.6641C37.0234 15.5859 36.0078 16.5 34.9922 17.4062C33.9766 18.3125 32.9297 19.1875 31.8516 20.0312C31.8203 20.1875 31.7734 20.3281 31.7109 20.4531C31.6641 20.5781 31.6328 20.7109 31.6172 20.8516C31.6172 20.9297 31.625 20.9922 31.6406 21.0391C31.75 21.0703 31.8438 21.1328 31.9219 21.2266C32.0156 21.3047 32.0469 21.4141 32.0156 21.5547H32.2266C32.3047 21.5547 32.3438 21.5859 32.3438 21.6484L32.7188 21.6719C33.3125 21.7031 33.9062 21.6875 34.5 21.625C35.0938 21.5625 35.6875 21.4922 36.2812 21.4141C36.8906 21.3359 37.4922 21.2656 38.0859 21.2031C38.6797 21.125 39.2734 21.0781 39.8672 21.0625C40.0078 21.0156 40.1562 20.9766 40.3125 20.9453C40.4688 20.9141 40.6094 20.8516 40.7344 20.7578H40.8047C40.9141 20.7578 40.9922 20.7891 41.0391 20.8516C41.1016 20.9141 41.1875 20.9531 41.2969 20.9688C41.375 20.9688 41.4531 20.9531 41.5312 20.9219C41.625 20.8906 41.7188 20.8672 41.8125 20.8516C42.0312 20.7891 42.2578 20.75 42.4922 20.7344C42.7422 20.7188 42.9844 20.6953 43.2188 20.6641C44.125 20.5859 45.0234 20.5391 45.9141 20.5234C46.8047 20.4922 47.6953 20.375 48.5859 20.1719C48.6641 20.2812 48.7734 20.3594 48.9141 20.4062C49.0547 20.4375 49.2031 20.4766 49.3594 20.5234C49.5156 20.5547 49.6562 20.5938 49.7812 20.6406C49.9219 20.6875 50.0156 20.7812 50.0625 20.9219ZM63.1172 9.92969C63.0547 10.1328 62.9531 10.3203 62.8125 10.4922L62.4141 10.9844C62.2891 11.1406 62.1797 11.3125 62.0859 11.5C62.0078 11.6719 61.9844 11.875 62.0156 12.1094C61.9844 12.1094 61.9453 12.1094 61.8984 12.1094C61.8516 12.0938 61.8125 12.0859 61.7812 12.0859C61.5312 12.0859 61.3359 12.1484 61.1953 12.2734C61.0703 12.3828 60.8984 12.4766 60.6797 12.5547C60.6484 12.4609 60.6094 12.375 60.5625 12.2969C60.5156 12.2031 60.4453 12.1406 60.3516 12.1094C59.9766 12.1875 59.6016 12.25 59.2266 12.2969C58.8516 12.3281 58.4766 12.375 58.1016 12.4375C57.9297 12.4688 57.7578 12.5156 57.5859 12.5781C57.4141 12.625 57.2344 12.6719 57.0469 12.7188C56.9531 12.75 56.8516 12.7656 56.7422 12.7656C56.6328 12.75 56.5234 12.75 56.4141 12.7656C56.0391 12.7812 55.6328 12.8125 55.1953 12.8594C54.7578 12.8906 54.3672 13.0078 54.0234 13.2109C53.8672 13.1797 53.7031 13.1562 53.5312 13.1406C53.3594 13.125 53.1875 13.1172 53.0156 13.1172C52.6406 13.1172 52.2266 13.1562 51.7734 13.2344C51.3359 13.2969 50.9453 13.4297 50.6016 13.6328C50.5234 13.6016 50.4375 13.5781 50.3438 13.5625C50.2656 13.5469 50.1719 13.5391 50.0625 13.5391C50.0312 13.5391 50.0078 13.5469 49.9922 13.5625C49.9766 13.5625 49.9531 13.5625 49.9219 13.5625C49.9062 13.7031 49.9219 13.8438 49.9688 13.9844C50.0312 14.1094 50.1328 14.2109 50.2734 14.2891C50.2109 14.4609 50.1797 14.6484 50.1797 14.8516C50.1797 15.1172 50.1953 15.3828 50.2266 15.6484C50.2734 15.9141 50.2969 16.1797 50.2969 16.4453C50.2969 16.7422 50.2578 16.9766 50.1797 17.1484C50.3359 17.6172 50.4141 18.1172 50.4141 18.6484C50.4141 18.8359 50.3984 19.0234 50.3672 19.2109C50.3516 19.3828 50.3438 19.5703 50.3438 19.7734C50.3438 19.9453 50.4062 20.0859 50.5312 20.1953C50.6562 20.2891 50.7188 20.4219 50.7188 20.5938C50.7188 20.6562 50.7031 20.7188 50.6719 20.7812C50.8906 20.7344 51.1016 20.6719 51.3047 20.5938C51.5078 20.5 51.7188 20.4531 51.9375 20.4531C52.0625 20.4531 52.1797 20.4766 52.2891 20.5234C52.4141 20.5703 52.5234 20.6328 52.6172 20.7109C52.6016 20.7891 52.5859 20.875 52.5703 20.9688C52.5703 21.0625 52.5703 21.1562 52.5703 21.25C52.5703 21.4219 52.5703 21.5859 52.5703 21.7422C52.5859 21.8828 52.6016 22.0391 52.6172 22.2109C52.4922 22.4297 52.3438 22.625 52.1719 22.7969C52.0156 22.9688 51.9062 23.1875 51.8438 23.4531C51.6094 23.4531 51.3984 23.5078 51.2109 23.6172C51.0391 23.7109 50.875 23.8203 50.7188 23.9453C50.5625 24.0547 50.4062 24.1641 50.25 24.2734C50.0938 24.3672 49.9219 24.4141 49.7344 24.4141C49.5 24.4141 49.3359 24.3828 49.2422 24.3203C49.1484 24.2422 49.0781 24.1641 49.0312 24.0859C48.9844 24.0078 48.9375 23.9375 48.8906 23.875C48.8594 23.8125 48.7812 23.7891 48.6562 23.8047C48.625 23.6016 48.5625 23.4141 48.4688 23.2422C48.375 23.0547 48.2734 22.875 48.1641 22.7031C48.0703 22.5312 47.9688 22.3594 47.8594 22.1875C47.7656 22 47.6953 21.8125 47.6484 21.625C47.5547 21.2188 47.5156 20.7969 47.5312 20.3594C47.5469 19.9219 47.4766 19.5 47.3203 19.0938C47.3516 18.875 47.375 18.6562 47.3906 18.4375C47.4062 18.2031 47.4141 17.9766 47.4141 17.7578C47.4141 17.3203 47.3984 16.8906 47.3672 16.4688C47.3516 16.0312 47.3359 15.5859 47.3203 15.1328C47.2109 14.9922 47.1406 14.8359 47.1094 14.6641C47.0938 14.4766 47.0781 14.2969 47.0625 14.125C47.0156 14.0781 46.9609 14.0312 46.8984 13.9844C46.8516 13.9375 46.8203 13.875 46.8047 13.7969C46.6797 13.7656 46.5859 13.75 46.5234 13.75C46.3047 13.75 46.1172 13.8047 45.9609 13.9141C45.8203 14.0078 45.6875 14.0547 45.5625 14.0547C45.4375 14.0547 45.3203 14.0391 45.2109 14.0078C45.1016 13.9766 44.9922 13.9609 44.8828 13.9609C44.7891 13.9609 44.7344 13.9844 44.7188 14.0312C44.7188 14.0625 44.6875 14.0938 44.625 14.125C44.5781 14.1562 44.4688 14.1875 44.2969 14.2188C44.125 14.25 43.9297 14.2812 43.7109 14.3125C43.5078 14.3281 43.3047 14.3438 43.1016 14.3594C42.9141 14.375 42.7891 14.3828 42.7266 14.3828C42.4766 14.3828 42.2891 14.3359 42.1641 14.2422C42.0234 14.1328 41.8594 14.0156 41.6719 13.8906C41.7031 13.7969 41.7188 13.7344 41.7188 13.7031C41.7188 13.5469 41.6719 13.4219 41.5781 13.3281C41.4844 13.2188 41.4375 13.125 41.4375 13.0469C41.4375 12.875 41.5078 12.7422 41.6484 12.6484C41.7734 12.5547 41.8438 12.4062 41.8594 12.2031C42.2188 12.0469 42.5859 11.9297 42.9609 11.8516C43.3359 11.7734 43.7188 11.7109 44.1094 11.6641C44.5 11.6172 44.8828 11.5625 45.2578 11.5C45.6484 11.4375 46.0312 11.3359 46.4062 11.1953C46.5156 11.2109 46.6172 11.2266 46.7109 11.2422C46.8203 11.2422 46.9297 11.2422 47.0391 11.2422C47.5078 11.2422 47.9688 11.1953 48.4219 11.1016C48.8906 10.9922 49.3672 10.9375 49.8516 10.9375C49.9766 10.9375 50.1016 10.9453 50.2266 10.9609C50.3516 10.9766 50.4766 11 50.6016 11.0312C51.2266 10.9375 51.8438 10.8359 52.4531 10.7266C53.0781 10.6172 53.7188 10.5234 54.375 10.4453C54.6875 10.4141 54.9922 10.3906 55.2891 10.375C55.6016 10.3438 55.9141 10.3047 56.2266 10.2578C56.3359 10.2422 56.4141 10.2188 56.4609 10.1875C56.5234 10.1406 56.5547 10.0547 56.5547 9.92969C56.6953 9.99219 56.8516 10.0234 57.0234 10.0234C57.2891 10.0234 57.5469 9.97656 57.7969 9.88281C58.0469 9.78906 58.3047 9.74219 58.5703 9.74219C58.6328 9.74219 58.6875 9.75 58.7344 9.76562C58.7812 9.76562 58.8281 9.76562 58.875 9.76562C58.9844 9.76562 59.0391 9.71875 59.0391 9.625C59.0547 9.51562 59.1328 9.44531 59.2734 9.41406C59.3828 9.38281 59.5391 9.35938 59.7422 9.34375C59.9453 9.32812 60.1562 9.3125 60.375 9.29688C60.6094 9.26562 60.8203 9.23438 61.0078 9.20312C61.2109 9.15625 61.3594 9.09375 61.4531 9.01562L61.6172 8.75781C61.8984 8.77344 62.1016 8.89844 62.2266 9.13281C62.3672 9.35156 62.4453 9.59375 62.4609 9.85938C62.5234 9.92188 62.6094 9.95312 62.7188 9.95312C62.8438 9.9375 62.9531 9.92969 63.0469 9.92969H63.1172ZM78.7734 24.1328C78.7734 24.2891 78.7656 24.4062 78.75 24.4844C78.6719 24.5156 78.6094 24.5625 78.5625 24.625C78.5156 24.6719 78.4375 24.6875 78.3281 24.6719C78.2969 24.9062 78.2188 25.1016 78.0938 25.2578C77.9688 25.4141 77.8359 25.5547 77.6953 25.6797C77.5703 25.8203 77.4453 25.9609 77.3203 26.1016C77.1953 26.2578 77.1172 26.4531 77.0859 26.6875C76.8516 26.8125 76.6172 26.9766 76.3828 27.1797C76.1641 27.3984 75.9688 27.5469 75.7969 27.625C75.6719 27.6875 75.5391 27.7344 75.3984 27.7656C75.2578 27.8125 75.1172 27.8672 74.9766 27.9297C74.5234 28.1328 74.0547 28.3438 73.5703 28.5625C73.1016 28.7812 72.6094 28.8906 72.0938 28.8906H71.9297C71.8672 28.9531 71.7891 28.9922 71.6953 29.0078C71.6016 29.0391 71.5078 29.0625 71.4141 29.0781C71.3203 29.0938 71.2266 29.1172 71.1328 29.1484C71.0391 29.1797 70.9688 29.2266 70.9219 29.2891C70.75 29.2266 70.5625 29.1953 70.3594 29.1953H70.1953C69.9297 29.2578 69.6797 29.3047 69.4453 29.3359C69.2109 29.3672 68.9609 29.3828 68.6953 29.3828C68.2266 29.3828 67.7578 29.3516 67.2891 29.2891C66.8203 29.2266 66.3516 29.1719 65.8828 29.125C65.5859 28.8906 65.3438 28.5938 65.1562 28.2344C64.9688 27.8906 64.875 27.5234 64.875 27.1328C64.875 26.8359 64.9375 26.5547 65.0625 26.2891C65.1875 26.0391 65.3516 25.8125 65.5547 25.6094H65.625C65.7656 25.6094 65.9062 25.5781 66.0469 25.5156C66.2031 25.4531 66.3516 25.4219 66.4922 25.4219C66.6484 25.4219 66.7734 25.4844 66.8672 25.6094C66.9766 25.7344 67.0547 25.8828 67.1016 26.0547C67.1641 26.2266 67.2031 26.3984 67.2188 26.5703C67.2344 26.7578 67.2422 26.9062 67.2422 27.0156C67.4141 27.0938 67.5938 27.1406 67.7812 27.1562C67.9844 27.1719 68.1875 27.1797 68.3906 27.1797C68.5938 27.1797 68.8203 27.1641 69.0703 27.1328C69.3203 27.1172 69.5703 27.0781 69.8203 27.0156C70.0859 26.9688 70.3359 26.9062 70.5703 26.8281C70.8203 26.75 71.0312 26.6484 71.2031 26.5234C72.0625 26.4453 72.8203 26.25 73.4766 25.9375C74.1328 25.625 74.8281 25.2578 75.5625 24.8359C75.5938 24.6641 75.6562 24.5312 75.75 24.4375C75.8594 24.3281 75.9141 24.1719 75.9141 23.9688C75.9141 23.9375 75.9062 23.9062 75.8906 23.875C75.8906 23.8281 75.8906 23.7891 75.8906 23.7578C75.5781 23.3672 75.25 23.0234 74.9062 22.7266C74.5781 22.4297 74.1484 22.2344 73.6172 22.1406C73.5547 22 73.4531 21.8984 73.3125 21.8359C73.1719 21.7578 73.0234 21.6875 72.8672 21.625C72.7109 21.5625 72.5625 21.5 72.4219 21.4375C72.2812 21.3594 72.1797 21.2344 72.1172 21.0625C71.6953 20.9844 71.2578 20.8906 70.8047 20.7812C70.3672 20.6562 69.9922 20.4375 69.6797 20.125C69.4297 20.1094 69.1875 20.0625 68.9531 19.9844C68.7344 19.8906 68.5156 19.8047 68.2969 19.7266C68.0781 19.6328 67.8516 19.5547 67.6172 19.4922C67.3828 19.4141 67.1406 19.375 66.8906 19.375C66.8281 19.2656 66.7422 19.1797 66.6328 19.1172C66.5234 19.0547 66.3984 19 66.2578 18.9531C66.1328 18.9062 66.0078 18.8594 65.8828 18.8125C65.7734 18.75 65.6875 18.6641 65.625 18.5547C65.5625 18.5703 65.5156 18.6016 65.4844 18.6484C65.4531 18.6953 65.3984 18.7188 65.3203 18.7188H65.2266C65.1953 18.625 65.1328 18.5625 65.0391 18.5312C64.9453 18.4844 64.8906 18.3984 64.875 18.2734C64.5938 18.2578 64.3359 18.2031 64.1016 18.1094C63.8828 18.0156 63.6719 17.9141 63.4688 17.8047C63.2812 17.6797 63.0859 17.5625 62.8828 17.4531C62.6797 17.3438 62.4531 17.2578 62.2031 17.1953C62.0469 17.0703 61.8984 16.9375 61.7578 16.7969C61.6328 16.6406 61.4688 16.5625 61.2656 16.5625C61.2188 16.5625 61.1328 16.5781 61.0078 16.6094C60.9766 16.3281 60.8594 16.1328 60.6562 16.0234C60.4531 15.8984 60.2344 15.7891 60 15.6953C59.8438 15.2891 59.6328 14.9297 59.3672 14.6172C59.1016 14.3047 58.8125 14.0156 58.5 13.75C58.5312 13.6562 58.5469 13.5859 58.5469 13.5391C58.5469 13.3828 58.5078 13.25 58.4297 13.1406C58.3516 13.0156 58.2656 12.9141 58.1719 12.8359C57.9531 12.1328 57.8438 11.4453 57.8438 10.7734C57.8438 9.83594 58.0547 8.96875 58.4766 8.17188C58.8828 7.35938 59.5312 6.75 60.4219 6.34375C60.4375 6.21875 60.4766 6.10938 60.5391 6.01562C60.6172 5.92188 60.6641 5.8125 60.6797 5.6875C60.8203 5.6875 60.9297 5.65625 61.0078 5.59375C61.0859 5.53125 61.1562 5.46875 61.2188 5.40625C61.2969 5.32812 61.375 5.25781 61.4531 5.19531C61.5312 5.13281 61.6328 5.09375 61.7578 5.07812C62.3516 4.5625 62.9844 4.14844 63.6562 3.83594C64.3281 3.50781 65.0156 3.17187 65.7188 2.82812C65.8594 2.76563 65.9766 2.64844 66.0703 2.47656H66.2109C66.3672 2.47656 66.4844 2.44531 66.5625 2.38281C66.6562 2.30469 66.7891 2.28125 66.9609 2.3125C67.0234 2.21875 67.1016 2.15625 67.1953 2.125C67.3047 2.09375 67.4062 2.07031 67.5 2.05469C67.6094 2.02344 67.7109 1.98438 67.8047 1.9375C67.8984 1.89062 67.9609 1.82031 67.9922 1.72656H68.1562C68.4219 1.72656 68.6797 1.6875 68.9297 1.60938C69.1797 1.51562 69.4297 1.41406 69.6797 1.30469H69.8438C70.1562 1.30469 70.4453 1.25 70.7109 1.14062C70.9922 1.01562 71.2891 0.929688 71.6016 0.882812C71.7266 0.851563 71.8516 0.84375 71.9766 0.859375C72.1016 0.875 72.2266 0.882812 72.3516 0.882812C72.4297 0.882812 72.5234 0.875 72.6328 0.859375C72.7422 0.84375 72.8203 0.796875 72.8672 0.71875H72.9141C73.0078 0.71875 73.0625 0.75 73.0781 0.8125C73.0938 0.875 73.1406 0.90625 73.2188 0.90625C73.3281 0.90625 73.4375 0.890625 73.5469 0.859375C73.6562 0.828125 73.7656 0.8125 73.875 0.8125C74.3438 0.8125 74.8047 0.859375 75.2578 0.953125C75.7266 1.04688 76.1875 1.13281 76.6406 1.21094C76.6719 1.39844 76.75 1.53125 76.875 1.60938C77.0156 1.6875 77.1641 1.75781 77.3203 1.82031V1.91406C77.3203 2.03906 77.3516 2.14062 77.4141 2.21875C77.3516 2.4375 77.2422 2.60156 77.0859 2.71094C76.9297 2.82031 76.7578 2.91406 76.5703 2.99219C76.6484 3.05469 76.6953 3.14063 76.7109 3.25C76.7266 3.35937 76.7344 3.46094 76.7344 3.55469V3.83594L76.6172 3.8125C76.3672 3.8125 76.2422 3.92969 76.2422 4.16406C76.0391 4.03906 75.8125 3.96094 75.5625 3.92969C75.3281 3.89844 75.0938 3.88281 74.8594 3.88281C74.5469 3.88281 74.2188 3.89844 73.875 3.92969C73.5312 3.94531 73.1953 3.9375 72.8672 3.90625C72.7422 4.0625 72.5859 4.17969 72.3984 4.25781C72.2109 4.32031 72.0234 4.35156 71.8359 4.35156C71.6328 4.35156 71.4375 4.3125 71.25 4.23438C71.0625 4.14062 70.9297 4.00781 70.8516 3.83594C70.7734 3.80469 70.7031 3.78906 70.6406 3.78906H70.4297C70.1797 3.78906 69.9297 3.82031 69.6797 3.88281C69.4453 3.92969 69.2031 3.99219 68.9531 4.07031C68.7031 4.13281 68.4531 4.20312 68.2031 4.28125C67.9688 4.34375 67.7266 4.38281 67.4766 4.39844C67.3828 4.52344 67.2578 4.60938 67.1016 4.65625C66.9453 4.70312 66.8203 4.78906 66.7266 4.91406C66.3984 4.97656 66.1016 5.08594 65.8359 5.24219C65.5703 5.38281 65.3125 5.53906 65.0625 5.71094L64.3359 6.20312C64.1016 6.35938 63.8359 6.49219 63.5391 6.60156C63.3203 6.83594 63.1172 7.02344 62.9297 7.16406C62.7422 7.30469 62.5 7.42969 62.2031 7.53906C62.0156 7.60156 61.9062 7.69531 61.875 7.82031C61.8594 7.94531 61.7969 8.07031 61.6875 8.19531C61.5938 8.30469 61.4766 8.39062 61.3359 8.45312C61.2109 8.5 61.1016 8.58594 61.0078 8.71094C60.9297 8.82031 60.8672 8.95312 60.8203 9.10938C60.7891 9.25 60.75 9.39062 60.7031 9.53125C60.6562 9.67188 60.6016 9.8125 60.5391 9.95312C60.4766 10.0781 60.3828 10.1875 60.2578 10.2812C60.2578 10.3438 60.25 10.4062 60.2344 10.4688C60.2344 10.5312 60.2344 10.5859 60.2344 10.6328C60.2344 10.8516 60.2578 11.0781 60.3047 11.3125C60.3672 11.5312 60.4062 11.75 60.4219 11.9688C60.7344 12.5156 61.1016 13.0156 61.5234 13.4688C61.9453 13.9062 62.3984 14.3125 62.8828 14.6875C63.3672 15.0625 63.8672 15.4141 64.3828 15.7422C64.9141 16.0703 65.4375 16.3906 65.9531 16.7031C66.1406 16.6875 66.3125 16.7109 66.4688 16.7734C66.625 16.8203 66.7891 16.8516 66.9609 16.8672C67.1484 17.0078 67.3672 17.1172 67.6172 17.1953L68.3672 17.4297C68.6172 17.5078 68.8594 17.6016 69.0938 17.7109C69.3281 17.8047 69.5234 17.9375 69.6797 18.1094C69.7578 18.125 69.8281 18.1484 69.8906 18.1797C69.9531 18.1953 70.0234 18.2031 70.1016 18.2031C70.1953 18.2031 70.25 18.1719 70.2656 18.1094C70.9688 18.375 71.6562 18.6719 72.3281 19C73 19.3125 73.7109 19.5547 74.4609 19.7266C74.7578 19.9766 75.0859 20.1953 75.4453 20.3828C75.8047 20.5703 76.1641 20.7656 76.5234 20.9688C76.8828 21.1562 77.2266 21.3672 77.5547 21.6016C77.8828 21.8203 78.1719 22.0859 78.4219 22.3984C78.4531 22.6953 78.5156 22.9844 78.6094 23.2656C78.7188 23.5312 78.7734 23.8203 78.7734 24.1328ZM100.219 9.92969C100.156 10.1328 100.055 10.3203 99.9141 10.4922L99.5156 10.9844C99.3906 11.1406 99.2812 11.3125 99.1875 11.5C99.1094 11.6719 99.0859 11.875 99.1172 12.1094C99.0859 12.1094 99.0469 12.1094 99 12.1094C98.9531 12.0938 98.9141 12.0859 98.8828 12.0859C98.6328 12.0859 98.4375 12.1484 98.2969 12.2734C98.1719 12.3828 98 12.4766 97.7812 12.5547C97.75 12.4609 97.7109 12.375 97.6641 12.2969C97.6172 12.2031 97.5469 12.1406 97.4531 12.1094C97.0781 12.1875 96.7031 12.25 96.3281 12.2969C95.9531 12.3281 95.5781 12.375 95.2031 12.4375C95.0312 12.4688 94.8594 12.5156 94.6875 12.5781C94.5156 12.625 94.3359 12.6719 94.1484 12.7188C94.0547 12.75 93.9531 12.7656 93.8438 12.7656C93.7344 12.75 93.625 12.75 93.5156 12.7656C93.1406 12.7812 92.7344 12.8125 92.2969 12.8594C91.8594 12.8906 91.4688 13.0078 91.125 13.2109C90.9688 13.1797 90.8047 13.1562 90.6328 13.1406C90.4609 13.125 90.2891 13.1172 90.1172 13.1172C89.7422 13.1172 89.3281 13.1562 88.875 13.2344C88.4375 13.2969 88.0469 13.4297 87.7031 13.6328C87.625 13.6016 87.5391 13.5781 87.4453 13.5625C87.3672 13.5469 87.2734 13.5391 87.1641 13.5391C87.1328 13.5391 87.1094 13.5469 87.0938 13.5625C87.0781 13.5625 87.0547 13.5625 87.0234 13.5625C87.0078 13.7031 87.0234 13.8438 87.0703 13.9844C87.1328 14.1094 87.2344 14.2109 87.375 14.2891C87.3125 14.4609 87.2812 14.6484 87.2812 14.8516C87.2812 15.1172 87.2969 15.3828 87.3281 15.6484C87.375 15.9141 87.3984 16.1797 87.3984 16.4453C87.3984 16.7422 87.3594 16.9766 87.2812 17.1484C87.4375 17.6172 87.5156 18.1172 87.5156 18.6484C87.5156 18.8359 87.5 19.0234 87.4688 19.2109C87.4531 19.3828 87.4453 19.5703 87.4453 19.7734C87.4453 19.9453 87.5078 20.0859 87.6328 20.1953C87.7578 20.2891 87.8203 20.4219 87.8203 20.5938C87.8203 20.6562 87.8047 20.7188 87.7734 20.7812C87.9922 20.7344 88.2031 20.6719 88.4062 20.5938C88.6094 20.5 88.8203 20.4531 89.0391 20.4531C89.1641 20.4531 89.2812 20.4766 89.3906 20.5234C89.5156 20.5703 89.625 20.6328 89.7188 20.7109C89.7031 20.7891 89.6875 20.875 89.6719 20.9688C89.6719 21.0625 89.6719 21.1562 89.6719 21.25C89.6719 21.4219 89.6719 21.5859 89.6719 21.7422C89.6875 21.8828 89.7031 22.0391 89.7188 22.2109C89.5938 22.4297 89.4453 22.625 89.2734 22.7969C89.1172 22.9688 89.0078 23.1875 88.9453 23.4531C88.7109 23.4531 88.5 23.5078 88.3125 23.6172C88.1406 23.7109 87.9766 23.8203 87.8203 23.9453C87.6641 24.0547 87.5078 24.1641 87.3516 24.2734C87.1953 24.3672 87.0234 24.4141 86.8359 24.4141C86.6016 24.4141 86.4375 24.3828 86.3438 24.3203C86.25 24.2422 86.1797 24.1641 86.1328 24.0859C86.0859 24.0078 86.0391 23.9375 85.9922 23.875C85.9609 23.8125 85.8828 23.7891 85.7578 23.8047C85.7266 23.6016 85.6641 23.4141 85.5703 23.2422C85.4766 23.0547 85.375 22.875 85.2656 22.7031C85.1719 22.5312 85.0703 22.3594 84.9609 22.1875C84.8672 22 84.7969 21.8125 84.75 21.625C84.6562 21.2188 84.6172 20.7969 84.6328 20.3594C84.6484 19.9219 84.5781 19.5 84.4219 19.0938C84.4531 18.875 84.4766 18.6562 84.4922 18.4375C84.5078 18.2031 84.5156 17.9766 84.5156 17.7578C84.5156 17.3203 84.5 16.8906 84.4688 16.4688C84.4531 16.0312 84.4375 15.5859 84.4219 15.1328C84.3125 14.9922 84.2422 14.8359 84.2109 14.6641C84.1953 14.4766 84.1797 14.2969 84.1641 14.125C84.1172 14.0781 84.0625 14.0312 84 13.9844C83.9531 13.9375 83.9219 13.875 83.9062 13.7969C83.7812 13.7656 83.6875 13.75 83.625 13.75C83.4062 13.75 83.2188 13.8047 83.0625 13.9141C82.9219 14.0078 82.7891 14.0547 82.6641 14.0547C82.5391 14.0547 82.4219 14.0391 82.3125 14.0078C82.2031 13.9766 82.0938 13.9609 81.9844 13.9609C81.8906 13.9609 81.8359 13.9844 81.8203 14.0312C81.8203 14.0625 81.7891 14.0938 81.7266 14.125C81.6797 14.1562 81.5703 14.1875 81.3984 14.2188C81.2266 14.25 81.0312 14.2812 80.8125 14.3125C80.6094 14.3281 80.4062 14.3438 80.2031 14.3594C80.0156 14.375 79.8906 14.3828 79.8281 14.3828C79.5781 14.3828 79.3906 14.3359 79.2656 14.2422C79.125 14.1328 78.9609 14.0156 78.7734 13.8906C78.8047 13.7969 78.8203 13.7344 78.8203 13.7031C78.8203 13.5469 78.7734 13.4219 78.6797 13.3281C78.5859 13.2188 78.5391 13.125 78.5391 13.0469C78.5391 12.875 78.6094 12.7422 78.75 12.6484C78.875 12.5547 78.9453 12.4062 78.9609 12.2031C79.3203 12.0469 79.6875 11.9297 80.0625 11.8516C80.4375 11.7734 80.8203 11.7109 81.2109 11.6641C81.6016 11.6172 81.9844 11.5625 82.3594 11.5C82.75 11.4375 83.1328 11.3359 83.5078 11.1953C83.6172 11.2109 83.7188 11.2266 83.8125 11.2422C83.9219 11.2422 84.0312 11.2422 84.1406 11.2422C84.6094 11.2422 85.0703 11.1953 85.5234 11.1016C85.9922 10.9922 86.4688 10.9375 86.9531 10.9375C87.0781 10.9375 87.2031 10.9453 87.3281 10.9609C87.4531 10.9766 87.5781 11 87.7031 11.0312C88.3281 10.9375 88.9453 10.8359 89.5547 10.7266C90.1797 10.6172 90.8203 10.5234 91.4766 10.4453C91.7891 10.4141 92.0938 10.3906 92.3906 10.375C92.7031 10.3438 93.0156 10.3047 93.3281 10.2578C93.4375 10.2422 93.5156 10.2188 93.5625 10.1875C93.625 10.1406 93.6562 10.0547 93.6562 9.92969C93.7969 9.99219 93.9531 10.0234 94.125 10.0234C94.3906 10.0234 94.6484 9.97656 94.8984 9.88281C95.1484 9.78906 95.4062 9.74219 95.6719 9.74219C95.7344 9.74219 95.7891 9.75 95.8359 9.76562C95.8828 9.76562 95.9297 9.76562 95.9766 9.76562C96.0859 9.76562 96.1406 9.71875 96.1406 9.625C96.1562 9.51562 96.2344 9.44531 96.375 9.41406C96.4844 9.38281 96.6406 9.35938 96.8438 9.34375C97.0469 9.32812 97.2578 9.3125 97.4766 9.29688C97.7109 9.26562 97.9219 9.23438 98.1094 9.20312C98.3125 9.15625 98.4609 9.09375 98.5547 9.01562L98.7188 8.75781C99 8.77344 99.2031 8.89844 99.3281 9.13281C99.4688 9.35156 99.5469 9.59375 99.5625 9.85938C99.625 9.92188 99.7109 9.95312 99.8203 9.95312C99.9453 9.9375 100.055 9.92969 100.148 9.92969H100.219ZM111.539 21.2031C111.477 21.4375 111.375 21.6328 111.234 21.7891C111.094 21.9453 110.93 22.0859 110.742 22.2109C110.57 22.3359 110.383 22.4531 110.18 22.5625C109.977 22.6562 109.781 22.7656 109.594 22.8906H109.289C108.633 22.8906 108.125 22.7344 107.766 22.4219C107.422 22.0938 107.156 21.6953 106.969 21.2266C106.781 20.7422 106.641 20.2266 106.547 19.6797C106.469 19.1328 106.367 18.6328 106.242 18.1797C106.055 18.3359 105.898 18.5234 105.773 18.7422C105.648 18.9453 105.516 19.1484 105.375 19.3516C105.25 19.5547 105.102 19.7422 104.93 19.9141C104.773 20.0859 104.562 20.2031 104.297 20.2656C104.25 20.375 104.195 20.4844 104.133 20.5938C104.086 20.7031 104.055 20.8203 104.039 20.9453C103.695 21.1328 103.383 21.3516 103.102 21.6016C102.82 21.8516 102.539 22.1094 102.258 22.375C101.977 22.6406 101.688 22.8984 101.391 23.1484C101.109 23.3828 100.789 23.5781 100.43 23.7344C100.414 23.7188 100.383 23.7109 100.336 23.7109C100.148 23.7109 99.9766 23.7578 99.8203 23.8516C99.6641 23.9297 99.4922 23.9688 99.3047 23.9688C99.1797 23.9688 99.0625 23.9453 98.9531 23.8984C98.8594 23.8516 98.7578 23.7969 98.6484 23.7344C98.5547 23.6719 98.4531 23.625 98.3438 23.5938C98.2344 23.5625 98.1172 23.5547 97.9922 23.5703C97.8359 23.2891 97.625 23.0312 97.3594 22.7969C97.1094 22.5469 96.9531 22.2656 96.8906 21.9531C96.8594 21.8125 96.8359 21.6719 96.8203 21.5312C96.8203 21.375 96.8047 21.2188 96.7734 21.0625C96.7266 20.8281 96.6641 20.5938 96.5859 20.3594C96.5078 20.1094 96.4453 19.8594 96.3984 19.6094C96.4766 19.1875 96.5547 18.7266 96.6328 18.2266C96.6953 17.7109 96.7734 17.2031 96.8672 16.7031C96.9766 16.1875 97.1172 15.7031 97.2891 15.25C97.4766 14.7812 97.7109 14.3828 97.9922 14.0547L97.9688 13.8906C97.9688 13.6406 98.0156 13.4062 98.1094 13.1875C98.2031 12.9688 98.3047 12.7578 98.4141 12.5547C98.5234 12.3516 98.6172 12.1484 98.6953 11.9453C98.7734 11.7422 98.7891 11.5156 98.7422 11.2656C98.9297 11.1719 99.125 11.0938 99.3281 11.0312C99.5312 10.9688 99.7422 10.9375 99.9609 10.9375C100.164 10.9375 100.352 10.9688 100.523 11.0312C100.492 11.1562 100.547 11.2344 100.688 11.2656V11.3359C100.688 11.6641 100.648 11.9844 100.57 12.2969C100.492 12.6094 100.398 12.9219 100.289 13.2344C100.18 13.5312 100.07 13.8359 99.9609 14.1484C99.8672 14.4453 99.7969 14.75 99.75 15.0625C99.6875 15.0781 99.6406 15.1094 99.6094 15.1562C99.5938 15.2031 99.5781 15.25 99.5625 15.2969C99.5469 15.3438 99.5234 15.3828 99.4922 15.4141C99.4609 15.4453 99.4141 15.4609 99.3516 15.4609C99.2578 16.0078 99.1562 16.5547 99.0469 17.1016C98.9531 17.6328 98.9062 18.1719 98.9062 18.7188C98.9062 19.0469 98.9375 19.3828 99 19.7266C99.0625 20.0703 99.1797 20.3984 99.3516 20.7109L99.4453 20.6875C99.6172 20.6875 99.75 20.7266 99.8438 20.8047C99.9531 20.8828 100.094 20.9609 100.266 21.0391C100.391 21.0078 100.508 20.9688 100.617 20.9219C100.727 20.8594 100.773 20.7578 100.758 20.6172C100.961 20.6016 101.133 20.5547 101.273 20.4766C101.414 20.3828 101.539 20.2812 101.648 20.1719L102 19.8438C102.125 19.7344 102.273 19.6562 102.445 19.6094C102.445 19.5156 102.469 19.4453 102.516 19.3984L102.656 19.2578C102.703 19.2109 102.734 19.1641 102.75 19.1172C102.781 19.0547 102.789 18.9688 102.773 18.8594C102.961 18.8438 103.102 18.7969 103.195 18.7188C103.305 18.6406 103.398 18.5547 103.477 18.4609C103.57 18.3516 103.656 18.2422 103.734 18.1328C103.812 18.0234 103.914 17.9297 104.039 17.8516C104.148 17.6172 104.297 17.3047 104.484 16.9141C104.688 16.5234 104.883 16.1172 105.07 15.6953C105.273 15.2734 105.445 14.875 105.586 14.5C105.742 14.1094 105.82 13.8125 105.82 13.6094C105.82 13.5312 105.797 13.4609 105.75 13.3984C105.719 13.3359 105.711 13.2656 105.727 13.1875V13.1172C105.852 12.9609 105.961 12.7891 106.055 12.6016C106.164 12.4141 106.273 12.2344 106.383 12.0625C106.508 11.8906 106.641 11.7344 106.781 11.5938C106.922 11.4531 107.102 11.3438 107.32 11.2656C107.57 11.3438 107.82 11.3984 108.07 11.4297C108.336 11.4609 108.586 11.5234 108.82 11.6172C108.836 12.0078 108.875 12.4609 108.938 12.9766C109 13.4922 109.109 13.9297 109.266 14.2891C109.266 14.4922 109.258 14.6875 109.242 14.875C109.242 15.0625 109.242 15.25 109.242 15.4375C109.242 15.75 109.25 16.0703 109.266 16.3984C109.297 16.7266 109.352 17.0312 109.43 17.3125C109.32 17.5469 109.266 17.7969 109.266 18.0625C109.266 18.4219 109.32 18.7656 109.43 19.0938C109.539 19.4062 109.617 19.7422 109.664 20.1016C109.867 20.3828 110.133 20.5234 110.461 20.5234C110.539 20.5234 110.602 20.5156 110.648 20.5C110.711 20.4844 110.773 20.4609 110.836 20.4297C110.961 20.5703 111.07 20.7109 111.164 20.8516C111.273 20.9766 111.398 21.0938 111.539 21.2031ZM128.062 13.4453C128.062 13.6016 128.008 13.7031 127.898 13.75C127.789 13.7969 127.734 13.8906 127.734 14.0312C127.734 14.0781 127.75 14.1172 127.781 14.1484C127.812 14.1797 127.828 14.2266 127.828 14.2891V14.3828C127.641 15.2891 127.367 16.0781 127.008 16.75C126.664 17.4219 126.258 18.0391 125.789 18.6016C125.32 19.1641 124.789 19.6953 124.195 20.1953C123.617 20.6953 122.992 21.2188 122.32 21.7656C122.133 21.9219 121.938 22.0781 121.734 22.2344C121.547 22.3906 121.367 22.5547 121.195 22.7266L120.68 23.2188C120.664 23.2344 120.578 23.2734 120.422 23.3359C120.266 23.3828 120.172 23.4141 120.141 23.4297C119.922 23.5234 119.688 23.6328 119.438 23.7578C119.203 23.8828 119 24.0391 118.828 24.2266C118.516 24.2266 118.25 24.2734 118.031 24.3672C117.812 24.4609 117.57 24.5859 117.305 24.7422C117.227 24.7422 117.156 24.7266 117.094 24.6953C117.047 24.6641 116.992 24.6328 116.93 24.6016C116.867 24.5703 116.797 24.5547 116.719 24.5547C116.656 24.5391 116.57 24.5469 116.461 24.5781C116.273 24.2656 116.07 24 115.852 23.7812C115.633 23.5625 115.336 23.4297 114.961 23.3828C114.914 23.1172 114.805 22.9141 114.633 22.7734C114.461 22.6172 114.289 22.4531 114.117 22.2812C114.086 22.1875 114.062 22.0781 114.047 21.9531C114.031 21.8281 114 21.7109 113.953 21.6016C113.906 21.4922 113.844 21.3984 113.766 21.3203C113.688 21.2422 113.578 21.2031 113.438 21.2031C113.422 21.1094 113.461 21.0625 113.555 21.0625C113.648 21.0625 113.695 21.0234 113.695 20.9453C113.695 20.8516 113.68 20.7578 113.648 20.6641C113.617 20.5703 113.602 20.4688 113.602 20.3594C113.602 20.2812 113.609 20.2109 113.625 20.1484C113.641 20.0859 113.664 20.0156 113.695 19.9375C113.648 19.5156 113.625 19.0859 113.625 18.6484C113.625 17.8047 113.68 16.9766 113.789 16.1641C113.914 15.3359 113.977 14.5 113.977 13.6562C113.977 13.2812 113.953 12.9062 113.906 12.5312C113.875 12.1562 113.805 11.7891 113.695 11.4297C113.336 11.5078 112.977 11.6016 112.617 11.7109C112.258 11.8047 111.922 11.9375 111.609 12.1094C111.438 12 111.258 11.9375 111.07 11.9219C110.867 11.8906 110.672 11.8438 110.484 11.7812C110.375 11.5625 110.32 11.3359 110.32 11.1016C110.32 10.8828 110.359 10.6719 110.438 10.4688L110.672 9.85938C111.047 9.78125 111.422 9.66406 111.797 9.50781C112.156 9.35156 112.523 9.21094 112.898 9.08594C113.023 9.05469 113.18 9.01562 113.367 8.96875C113.57 8.92188 113.711 8.88281 113.789 8.85156C113.898 8.80469 113.969 8.71875 114 8.59375C114.047 8.45312 114.109 8.33594 114.188 8.24219H114.586C114.68 8.24219 114.781 8.25 114.891 8.26562C115 8.26562 115.102 8.28906 115.195 8.33594C115.758 8.19531 116.32 8.10938 116.883 8.07812C117.445 8.03125 118.023 7.96875 118.617 7.89062C118.68 7.89062 118.773 7.88281 118.898 7.86719L119.297 7.79688C119.438 7.76562 119.562 7.74219 119.672 7.72656C119.797 7.69531 119.883 7.67969 119.93 7.67969C119.977 7.67969 120 7.70312 120 7.75H120.398C121.07 7.75 121.727 7.83594 122.367 8.00781L124.289 8.52344C124.555 8.74219 124.82 8.95312 125.086 9.15625C125.352 9.35938 125.648 9.53906 125.977 9.69531C126.055 9.94531 126.172 10.1484 126.328 10.3047C126.5 10.4453 126.688 10.6016 126.891 10.7734C126.969 10.9766 127.07 11.1953 127.195 11.4297C127.336 11.6484 127.469 11.875 127.594 12.1094C127.719 12.3438 127.828 12.5781 127.922 12.8125C128.016 13.0312 128.062 13.2422 128.062 13.4453ZM125.883 13.7969C125.711 13.4375 125.547 13.0625 125.391 12.6719C125.234 12.2812 125.039 11.9297 124.805 11.6172C124.523 11.5391 124.234 11.4453 123.938 11.3359C123.656 11.2109 123.461 11 123.352 10.7031C123.32 10.7188 123.266 10.7266 123.188 10.7266C123.047 10.7266 122.922 10.6719 122.812 10.5625C122.703 10.4531 122.578 10.3828 122.438 10.3516C122.312 10.3359 122.141 10.3125 121.922 10.2812C121.719 10.25 121.5 10.2266 121.266 10.2109C121.031 10.1953 120.797 10.1797 120.562 10.1641C120.344 10.1484 120.172 10.1406 120.047 10.1406C119.922 10.1406 119.789 10.1484 119.648 10.1641C119.523 10.1641 119.391 10.1719 119.25 10.1875C119.125 10.1875 119.047 10.2109 119.016 10.2578C118.984 10.2891 118.922 10.3203 118.828 10.3516C118.75 10.3203 118.664 10.3047 118.57 10.3047H118.289C117.961 10.3047 117.633 10.3594 117.305 10.4688C116.992 10.5625 116.68 10.6953 116.367 10.8672V10.9609C116.367 11.0859 116.422 11.1562 116.531 11.1719C116.641 11.1875 116.703 11.25 116.719 11.3594C116.641 11.3594 116.578 11.3672 116.531 11.3828C116.484 11.3828 116.461 11.4375 116.461 11.5469C116.461 11.7031 116.477 11.875 116.508 12.0625C116.555 12.25 116.578 12.4375 116.578 12.625C116.578 12.7656 116.562 12.9297 116.531 13.1172C116.5 13.3047 116.422 13.4531 116.297 13.5625C116.453 13.7031 116.531 13.8906 116.531 14.125C116.531 14.2812 116.5 14.4453 116.438 14.6172C116.375 14.7891 116.297 14.9375 116.203 15.0625C116.172 15.7188 116.109 16.3828 116.016 17.0547C115.922 17.7266 115.875 18.3906 115.875 19.0469C115.875 19.375 115.891 19.6953 115.922 20.0078C115.969 20.3203 116.039 20.6328 116.133 20.9453C116.305 21.1172 116.484 21.25 116.672 21.3438C116.875 21.4375 117.086 21.5312 117.305 21.625V21.6953C117.305 21.7422 117.273 21.7891 117.211 21.8359C117.148 21.8828 117.117 21.9453 117.117 22.0234C117.117 22.0859 117.148 22.1172 117.211 22.1172C117.867 21.9297 118.484 21.7031 119.062 21.4375C119.641 21.1719 120.18 20.8125 120.68 20.3594C120.727 20.3125 120.773 20.2891 120.82 20.2891C120.852 20.2891 120.891 20.2969 120.938 20.3125C121 20.3281 121.055 20.3438 121.102 20.3594L121.078 20.2656C121.078 20.1719 121.102 20.0859 121.148 20.0078C121.211 19.9297 121.281 19.8594 121.359 19.7969L121.594 19.5859C121.672 19.5078 121.734 19.4297 121.781 19.3516C121.906 19.3203 121.992 19.2578 122.039 19.1641C122.102 19.0703 122.203 19.0234 122.344 19.0234C122.375 18.8516 122.461 18.7266 122.602 18.6484C122.742 18.5547 122.828 18.4219 122.859 18.25C123.172 18.0781 123.445 17.8672 123.68 17.6172C123.93 17.3672 124.156 17.1016 124.359 16.8203C124.578 16.5391 124.781 16.25 124.969 15.9531C125.156 15.6406 125.352 15.3438 125.555 15.0625V14.9688C125.555 14.7188 125.594 14.5156 125.672 14.3594C125.766 14.2031 125.836 14.0156 125.883 13.7969ZM134.156 21.7891C134.078 21.9141 133.984 22.0312 133.875 22.1406C133.766 22.2344 133.664 22.3359 133.57 22.4453C133.461 22.4922 133.336 22.5156 133.195 22.5156C133.07 22.5156 132.945 22.5156 132.82 22.5156C132.711 22.5 132.602 22.5 132.492 22.5156C132.398 22.5156 132.32 22.5469 132.258 22.6094C132.133 22.5781 132.039 22.5234 131.977 22.4453C131.914 22.3516 131.805 22.2969 131.648 22.2812C131.586 22.2656 131.523 22.2656 131.461 22.2812C131.227 22.0156 131.008 21.7344 130.805 21.4375C130.617 21.1406 130.438 20.8594 130.266 20.5938C130.25 20.0156 130.203 19.4297 130.125 18.8359C130.109 18.6953 130.086 18.5547 130.055 18.4141C130.023 18.2734 130 18.1406 129.984 18.0156C129.984 17.8594 129.992 17.7109 130.008 17.5703C130.039 17.4141 130.062 17.2734 130.078 17.1484C130.141 16.6953 130.211 16.25 130.289 15.8125C130.367 15.375 130.438 14.9297 130.5 14.4766C130.562 14.0703 130.594 13.6484 130.594 13.2109C130.594 12.7578 130.523 12.3359 130.383 11.9453L130.359 11.8281C130.391 11.7031 130.422 11.6016 130.453 11.5234C130.5 11.4297 130.531 11.3281 130.547 11.2188C130.578 11.0469 130.539 10.9219 130.43 10.8438C130.477 10.7188 130.555 10.6406 130.664 10.6094C130.773 10.5625 130.836 10.4688 130.852 10.3281C130.867 10.2656 130.867 10.2031 130.852 10.1406C130.977 10.0938 131.102 10.0547 131.227 10.0234C131.367 9.97656 131.5 9.96875 131.625 10C131.828 10.0312 132.008 10.1016 132.164 10.2109C132.32 10.3047 132.469 10.4141 132.609 10.5391C132.859 11.2891 132.961 12.0859 132.914 12.9297C132.867 13.7578 132.789 14.5938 132.68 15.4375C132.57 16.2812 132.5 17.1094 132.469 17.9219C132.438 18.7188 132.562 19.4609 132.844 20.1484L132.891 20.1719C132.969 20.1875 133.031 20.1641 133.078 20.1016C133.125 20.0234 133.188 19.9922 133.266 20.0078C133.328 20.0391 133.367 20.0547 133.383 20.0547C133.445 20.3672 133.547 20.6641 133.688 20.9453C133.828 21.2266 133.984 21.5078 134.156 21.7891ZM151.219 11.4297C151.125 11.5703 151.07 11.7266 151.055 11.8984C151.039 12.0703 151.031 12.2266 151.031 12.3672C151.031 12.5547 151.031 12.7422 151.031 12.9297C151.047 13.1016 151.055 13.2734 151.055 13.4453V13.7969C151.023 13.9062 150.977 14.0156 150.914 14.125C150.852 14.2344 150.805 14.3438 150.773 14.4531C150.555 15.0312 150.445 15.6094 150.445 16.1875V16.2344C150.367 16.4219 150.289 16.5938 150.211 16.75C150.148 16.9062 150.086 17.0625 150.023 17.2188C149.961 17.3594 149.914 17.5156 149.883 17.6875C149.852 17.8438 149.844 18.0312 149.859 18.25C149.641 18.7969 149.352 19.2969 148.992 19.75C148.633 20.1875 148.281 20.6406 147.938 21.1094C147.609 21.2344 147.305 21.3984 147.023 21.6016C146.758 21.8047 146.5 22.0312 146.25 22.2812C145.766 22.4375 145.289 22.6172 144.82 22.8203C144.352 23.0234 143.93 23.2969 143.555 23.6406C143.258 23.6719 142.961 23.7188 142.664 23.7812C142.367 23.8438 142.078 23.9375 141.797 24.0625H141.516C141.375 24.0625 141.273 24.0312 141.211 23.9688C141.008 24.0781 140.797 24.1562 140.578 24.2031C140.359 24.2344 140.141 24.25 139.922 24.25C139.641 24.25 139.359 24.2344 139.078 24.2031C138.812 24.1562 138.539 24.1094 138.258 24.0625C138.102 23.8438 137.883 23.6797 137.602 23.5703C137.32 23.4453 137.07 23.3281 136.852 23.2188C136.398 22.5938 136.07 21.9922 135.867 21.4141C135.664 20.8203 135.453 20.1562 135.234 19.4219C135.266 19.2031 135.32 18.9922 135.398 18.7891C135.477 18.5703 135.508 18.3359 135.492 18.0859C135.773 17.2734 136.141 16.5391 136.594 15.8828C137.062 15.2109 137.594 14.5703 138.188 13.9609C138.188 13.8672 138.203 13.7891 138.234 13.7266C138.281 13.6641 138.289 13.5703 138.258 13.4453C138.273 13.4609 138.305 13.4688 138.352 13.4688C138.477 13.4688 138.555 13.4375 138.586 13.375C138.617 13.2969 138.625 13.2109 138.609 13.1172C139.172 12.7578 139.68 12.3438 140.133 11.875C140.602 11.4062 141.133 11.0156 141.727 10.7031C141.773 10.5625 141.852 10.4453 141.961 10.3516C142.07 10.2578 142.156 10.1484 142.219 10.0234C142.719 9.88281 143.172 9.67188 143.578 9.39062C143.984 9.10938 144.414 8.85938 144.867 8.64062C145.117 8.5 145.352 8.40625 145.57 8.35938C145.805 8.29688 146.055 8.23438 146.32 8.17188C146.414 8.14062 146.5 8.11719 146.578 8.10156C146.656 8.08594 146.742 8.07812 146.836 8.07812C147.117 8.07812 147.391 8.13281 147.656 8.24219C147.922 8.33594 148.195 8.38281 148.477 8.38281C148.555 8.38281 148.617 8.38281 148.664 8.38281C148.727 8.36719 148.789 8.35156 148.852 8.33594C149.117 8.66406 149.453 8.91406 149.859 9.08594C149.953 9.32031 150.062 9.52344 150.188 9.69531C150.328 9.86719 150.469 10.0391 150.609 10.2109C150.75 10.3672 150.875 10.5469 150.984 10.75C151.109 10.9375 151.188 11.1641 151.219 11.4297ZM148.875 12.6484C148.875 12.5703 148.867 12.5 148.852 12.4375C148.695 12.3906 148.547 12.3281 148.406 12.25C148.266 12.1719 148.109 12.1328 147.938 12.1328C147.828 12.1328 147.719 12.1562 147.609 12.2031C147.594 12.0938 147.547 12.0156 147.469 11.9688C147.406 11.9219 147.328 11.8828 147.234 11.8516C147.156 11.8047 147.07 11.7734 146.977 11.7578C146.898 11.7266 146.828 11.6797 146.766 11.6172C146.719 11.4922 146.664 11.3672 146.602 11.2422C146.555 11.1016 146.461 11 146.32 10.9375C146.18 11.0781 146.016 11.1953 145.828 11.2891C145.641 11.3672 145.445 11.4453 145.242 11.5234C145.055 11.6016 144.867 11.6953 144.68 11.8047C144.508 11.9141 144.359 12.0469 144.234 12.2031H143.812C143.719 12.375 143.586 12.5078 143.414 12.6016C143.242 12.6797 143.094 12.7969 142.969 12.9531C142.719 13.0781 142.484 13.2344 142.266 13.4219C142.062 13.5938 141.859 13.7812 141.656 13.9844C141.453 14.1719 141.25 14.3672 141.047 14.5703C140.859 14.7734 140.656 14.9609 140.438 15.1328C140.234 15.5703 140.008 15.9531 139.758 16.2812C139.523 16.5938 139.297 16.9141 139.078 17.2422C138.875 17.5703 138.695 17.9297 138.539 18.3203C138.398 18.6953 138.328 19.1641 138.328 19.7266V19.9609C138.328 20.0391 138.336 20.1172 138.352 20.1953C138.555 20.4141 138.719 20.6484 138.844 20.8984C138.984 21.1484 139.211 21.3281 139.523 21.4375C139.836 21.5625 140.164 21.6172 140.508 21.6016C140.867 21.5859 141.211 21.625 141.539 21.7188C142.289 21.5781 143.008 21.3516 143.695 21.0391C144.398 20.7109 145.062 20.3203 145.688 19.8672C145.781 19.7891 145.891 19.7109 146.016 19.6328C146.141 19.5391 146.242 19.4453 146.32 19.3516C146.398 19.2734 146.461 19.1875 146.508 19.0938C146.57 19 146.633 18.9141 146.695 18.8359C146.82 18.6328 146.961 18.4297 147.117 18.2266C147.273 18.0234 147.438 17.8359 147.609 17.6641C147.688 17.3203 147.789 16.9922 147.914 16.6797C148.039 16.3516 148.164 16.0312 148.289 15.7188C148.414 15.4062 148.516 15.0859 148.594 14.7578C148.688 14.4297 148.734 14.0859 148.734 13.7266C148.734 13.6484 148.727 13.5625 148.711 13.4688C148.711 13.375 148.703 13.2891 148.688 13.2109C148.812 13.0391 148.875 12.8516 148.875 12.6484Z" fill="white"/>
</svg>
