<svg width="16" height="16" viewBox="0 0 16 16" fill="none" xmlns="http://www.w3.org/2000/svg">
<path d="M7.99936 13.6C6.44425 13.6 5.12225 13.0555 4.03336 11.9667C2.94447 10.8778 2.40002 9.55555 2.40002 7.99999C2.40002 6.44444 2.94408 5.12222 4.03219 4.03333C5.1203 2.94444 6.44158 2.39999 7.99602 2.39999C8.14114 2.39999 8.28364 2.40555 8.42352 2.41666C8.56341 2.42777 8.70558 2.44444 8.85002 2.46666C8.41669 2.78888 8.07225 3.18888 7.81669 3.66666C7.56114 4.14444 7.43336 4.65555 7.43336 5.19999C7.43336 6.14444 7.75836 6.94166 8.40836 7.59166C9.05836 8.24166 9.85558 8.56666 10.8 8.56666C11.3445 8.56666 11.8556 8.43888 12.3334 8.18333C12.8111 7.92777 13.2111 7.58333 13.5334 7.14999C13.5556 7.29444 13.5722 7.4366 13.5834 7.57649C13.5945 7.71638 13.6 7.85888 13.6 8.00399C13.6 9.55844 13.0554 10.8797 11.966 11.9678C10.8767 13.0559 9.55447 13.6 7.99936 13.6ZM8.00002 12.4C8.91114 12.4 9.73769 12.1385 10.4797 11.6155C11.2216 11.0924 11.7672 10.4094 12.1167 9.56666C11.8945 9.62222 11.6741 9.66944 11.4555 9.70833C11.2371 9.74722 11.0186 9.76666 10.8 9.76666C9.53491 9.76666 8.45752 9.32183 7.56786 8.43216C6.67819 7.54249 6.23336 6.4651 6.23336 5.19999C6.23336 4.98144 6.2528 4.76294 6.29169 4.54449C6.33058 4.32594 6.3778 4.10555 6.43336 3.88333C5.59058 4.23277 4.90764 4.77844 4.38452 5.52033C3.86152 6.26233 3.60002 7.08888 3.60002 7.99999C3.60002 9.22222 4.0278 10.2611 4.88336 11.1167C5.73891 11.9722 6.7778 12.4 8.00002 12.4Z" fill="black"/>
</svg>
