<svg width="12" height="12" viewBox="0 0 12 12" fill="none" xmlns="http://www.w3.org/2000/svg">
<path d="M6 1C3.2445 1 1 3.2445 1 6C1 8.7555 3.2445 11 6 11C8.7555 11 11 8.7555 11 6C11 3.2445 8.7555 1 6 1ZM6 2C8.21506 2 10 3.78494 10 6C10 8.00723 8.53266 9.65651 6.60938 9.94922V7.19238H7.77344L7.95605 6.00977H6.60938V5.36328C6.60938 4.87178 6.76949 4.43555 7.22949 4.43555H7.96777V3.40332C7.83777 3.38582 7.56342 3.34766 7.04492 3.34766C5.96192 3.34766 5.32715 3.91966 5.32715 5.22266V6.00977H4.21387V7.19238H5.32715V9.93945C3.43515 9.62042 2 7.98512 2 6C2 3.78494 3.78494 2 6 2Z" fill="#808080"/>
</svg>
