<svg width="12" height="12" viewBox="0 0 12 12" fill="none" xmlns="http://www.w3.org/2000/svg">
<g clip-path="url(#clip0_28_78)">
<path d="M3.83997 0.719971C2.11977 0.719971 0.719971 2.11977 0.719971 3.83997V8.15997C0.719971 9.88017 2.11977 11.28 3.83997 11.28H8.15997C9.88017 11.28 11.28 9.88017 11.28 8.15997V3.83997C11.28 2.11977 9.88017 0.719971 8.15997 0.719971H3.83997ZM3.83997 1.19997H8.15997C9.62073 1.19997 10.8 2.37921 10.8 3.83997V8.15997C10.8 9.62073 9.62073 10.8 8.15997 10.8H3.83997C2.37921 10.8 1.19997 9.62073 1.19997 8.15997V3.83997C1.19997 2.37921 2.37921 1.19997 3.83997 1.19997ZM8.87997 2.63997C8.75267 2.63997 8.63058 2.69054 8.54056 2.78056C8.45054 2.87058 8.39997 2.99267 8.39997 3.11997C8.39997 3.24727 8.45054 3.36936 8.54056 3.45938C8.63058 3.5494 8.75267 3.59997 8.87997 3.59997C9.00727 3.59997 9.12936 3.5494 9.21938 3.45938C9.3094 3.36936 9.35997 3.24727 9.35997 3.11997C9.35997 2.99267 9.3094 2.87058 9.21938 2.78056C9.12936 2.69054 9.00727 2.63997 8.87997 2.63997ZM5.99997 3.35997C4.54478 3.35997 3.35997 4.54478 3.35997 5.99997C3.35997 7.45516 4.54478 8.63997 5.99997 8.63997C7.45516 8.63997 8.63997 7.45516 8.63997 5.99997C8.63997 4.54478 7.45516 3.35997 5.99997 3.35997ZM5.99997 3.83997C7.19575 3.83997 8.15997 4.80419 8.15997 5.99997C8.15997 7.19575 7.19575 8.15997 5.99997 8.15997C4.80419 8.15997 3.83997 7.19575 3.83997 5.99997C3.83997 4.80419 4.80419 3.83997 5.99997 3.83997Z" fill="#808080"/>
</g>
<defs>
<clipPath id="clip0_28_78">
<rect width="12" height="12" fill="white"/>
</clipPath>
</defs>
</svg>
