<svg width="12" height="12" viewBox="0 0 12 12" fill="none" xmlns="http://www.w3.org/2000/svg">
<path d="M9.49265 1.2297C8.66664 0.436736 7.52351 0 6.27389 0C4.36504 0 3.19101 0.782464 2.54225 1.43883C1.7427 2.24774 1.28424 3.32181 1.28424 4.38569C1.28424 5.72147 1.84297 6.74672 2.77862 7.12815C2.84143 7.15388 2.90465 7.16684 2.96661 7.16684C3.16401 7.16684 3.3204 7.03768 3.37459 6.83051C3.40619 6.71166 3.47936 6.41843 3.51119 6.29114C3.5793 6.03977 3.52427 5.91886 3.37572 5.7438C3.10511 5.4236 2.97908 5.04497 2.97908 4.55219C2.97908 3.08849 4.06898 1.53289 6.08899 1.53289C7.6918 1.53289 8.68743 2.44386 8.68743 3.91026C8.68743 4.83562 8.48811 5.69259 8.12607 6.32342C7.87449 6.76175 7.43211 7.28424 6.75298 7.28424C6.45931 7.28424 6.19549 7.16361 6.02904 6.95328C5.8718 6.75446 5.81995 6.49763 5.88321 6.22995C5.95465 5.92751 6.05208 5.61204 6.14637 5.30707C6.31833 4.75005 6.48089 4.22395 6.48089 3.8042C6.48089 3.08626 6.03952 2.60385 5.38268 2.60385C4.54792 2.60385 3.89395 3.45168 3.89395 4.53403C3.89395 5.06484 4.03502 5.46187 4.09888 5.61431C3.99372 6.05986 3.36873 8.70878 3.25019 9.20828C3.18163 9.49987 2.76871 11.8029 3.45217 11.9866C4.22008 12.1929 4.9065 9.94987 4.97636 9.69641C5.03299 9.49028 5.23111 8.71082 5.35251 8.23168C5.72323 8.58875 6.32011 8.83016 6.9009 8.83016C7.99578 8.83016 8.98044 8.33745 9.67352 7.44291C10.3457 6.57525 10.7159 5.36592 10.7159 4.03785C10.7158 2.99961 10.27 1.97605 9.49265 1.2297Z" fill="#808080"/>
</svg>
