<svg width="24" height="24" viewBox="0 0 24 24" fill="none" xmlns="http://www.w3.org/2000/svg">
<g clip-path="url(#clip0_21_4)">
<path d="M21.9208 11.0054C21.589 12.031 20.9789 13.0046 20.0748 13.0046H6.37319L6.69162 15.5036C6.76361 16.0553 7.10465 16.5031 7.6146 16.5031H20.9978V17.5027H7.15311C6.38842 17.5027 5.89878 16.8475 5.76864 16.0033L3.92269 1.00946H0.230774V0.00986534C0.230774 0.00986534 3.07262 -0.0121257 3.92269 0.00986534C4.52816 0.025359 4.84566 1.00946 4.84566 1.00946L5.10041 3.00864H21.9208C23.1995 3.00864 23.7953 3.59141 23.7667 5.00783L21.9208 11.0054ZM21.9208 4.00824H7.6146H5.76864H5.22778L6.24582 12.005H6.69162H19.6133C20.4043 12.005 20.7366 11.7521 20.9978 11.0054L22.8437 5.50762C23.014 4.45955 22.5784 4.00824 21.9208 4.00824ZM9.22981 18.5023C10.6318 18.5023 11.768 19.7328 11.768 21.2512C11.768 22.7696 10.6318 24.0001 9.22981 24.0001C7.82781 24.0001 6.69162 22.7696 6.69162 21.2512C6.69162 19.7328 7.82781 18.5023 9.22981 18.5023ZM9.22981 23.0005C10.1219 23.0005 10.845 22.2178 10.845 21.2512C10.845 20.2846 10.1219 19.5019 9.22981 19.5019C8.33775 19.5019 7.6146 20.2846 7.6146 21.2512C7.6146 22.2178 8.33775 23.0005 9.22981 23.0005ZM18.9211 18.5023C20.3231 18.5023 21.4593 19.7328 21.4593 21.2512C21.4593 22.7696 20.3231 24.0001 18.9211 24.0001C17.5191 24.0001 16.3829 22.7696 16.3829 21.2512C16.3829 19.7328 17.5191 18.5023 18.9211 18.5023ZM18.9211 23.0005C19.8136 23.0005 20.5363 22.2178 20.5363 21.2512C20.5363 20.2846 19.8136 19.5019 18.9211 19.5019C18.0286 19.5019 17.3059 20.2846 17.3059 21.2512C17.3059 22.2178 18.0286 23.0005 18.9211 23.0005Z" fill="white"/>
</g>
<defs>
<clipPath id="clip0_21_4">
<rect width="24" height="24" fill="white"/>
</clipPath>
</defs>
</svg>
